HIERARCHY
ROOT Hips
{
 OFFSET 0.000000 0.000000 0.000000
 CHANNELS 6 Xposition Yposition Zposition Yrotation Xrotation Zrotation
 JOINT Chest
 {
  OFFSET 0.000000 9.585900 0.002600
  CHANNELS 3 Yrotation Xrotation Zrotation
  JOINT Chest2
  {
   OFFSET 0.000000 9.601200 -0.005300
   CHANNELS 3 Yrotation Xrotation Zrotation
   JOINT Chest3
   {
    OFFSET 0.000000 9.561800 0.000000
    CHANNELS 3 Yrotation Xrotation Zrotation
    JOINT Chest4
    {
     OFFSET 0.000000 9.552100 0.000000
     CHANNELS 3 Yrotation Xrotation Zrotation
     JOINT Neck
     {
      OFFSET 0.000000 14.453000 0.000000
      CHANNELS 3 Yrotation Xrotation Zrotation
      JOINT Head
      {
       OFFSET 0.000000 8.936500 -0.011300
       CHANNELS 3 Yrotation Xrotation Zrotation
       End Site
       {
        OFFSET 0.000000 17.073600 -0.006000
       }
      }
     }
     JOINT RightCollar
     {
      OFFSET -2.921100 9.558500 0.000000
      CHANNELS 3 Yrotation Xrotation Zrotation
      JOINT RightShoulder
      {
       OFFSET -13.519700 0.000000 0.000000
       CHANNELS 3 Yrotation Xrotation Zrotation
       JOINT RightElbow
       {
        OFFSET 0.000000 -29.696600 0.000000
        CHANNELS 3 Yrotation Xrotation Zrotation
        JOINT RightWrist
        {
         OFFSET 0.000000 -24.004700 0.000000
         CHANNELS 3 Yrotation Xrotation Zrotation
         End Site
         {
          OFFSET 0.000000 -17.728500 0.000000
         }
        }
       }
      }
     }
     JOINT LeftCollar
     {
      OFFSET 2.921100 9.558500 0.000000
      CHANNELS 3 Yrotation Xrotation Zrotation
      JOINT LeftShoulder
      {
       OFFSET 13.519700 0.000000 0.000000
       CHANNELS 3 Yrotation Xrotation Zrotation
       JOINT LeftElbow
       {
        OFFSET 0.000000 -29.696600 0.000000
        CHANNELS 3 Yrotation Xrotation Zrotation
        JOINT LeftWrist
        {
         OFFSET 0.000000 -24.004700 0.000000
         CHANNELS 3 Yrotation Xrotation Zrotation
         End Site
         {
          OFFSET 0.000000 -17.728500 0.000000
         }
        }
       }
      }
     }
    }
   }
  }
 }
 JOINT RightHip
 {
  OFFSET -7.771700 -0.012900 -0.001300
  CHANNELS 3 Yrotation Xrotation Zrotation
  JOINT RightKnee
  {
   OFFSET 0.000000 -40.869800 0.001200
   CHANNELS 3 Yrotation Xrotation Zrotation
   JOINT RightAnkle
   {
    OFFSET 0.000000 -39.717900 0.002100
    CHANNELS 3 Yrotation Xrotation Zrotation
    JOINT RightToe
    {
     OFFSET 0.000000 -4.965400 11.033500
     CHANNELS 3 Yrotation Xrotation Zrotation
     End Site
     {
      OFFSET 0.000000 -1.423100 5.872300
     }
    }
   }
  }
 }
 JOINT LeftHip
 {
  OFFSET 7.771700 -0.012900 -0.001300
  CHANNELS 3 Yrotation Xrotation Zrotation
  JOINT LeftKnee
  {
   OFFSET 0.000000 -40.869800 0.001200
   CHANNELS 3 Yrotation Xrotation Zrotation
   JOINT LeftAnkle
   {
    OFFSET 0.000000 -39.717900 0.002100
    CHANNELS 3 Yrotation Xrotation Zrotation
    JOINT LeftToe
    {
     OFFSET 0.000000 -4.965400 11.033500
     CHANNELS 3 Yrotation Xrotation Zrotation
     End Site
     {
      OFFSET 0.000000 -1.423100 5.872300
     }
    }
   }
  }
 }
}
MOTION
Frames: 12
Frame Time: 0.008333
-161.609111 55.127837 107.500735 -173.458552 -28.244881 -11.526895 -2.020547 13.004987 6.176934 -0.988433 7.596737 2.186707 -1.197020 9.471466 2.708762 -0.993073 7.565288 2.179948 2.240173 20.196389 -2.072187 2.774073 -4.306403 -2.754095 1.881432 -1.586476 -5.084641 -16.707766 -5.446892 5.775888 21.888586 -81.725924 -0.585740 12.115070 6.480453 -18.266461 -9.398073 1.417287 -2.888009 3.851816 -0.427350 -2.175964 -96.223728 -78.582136 98.011486 5.538752 -3.639102 -1.173544 -21.669810 -34.712271 10.644078 37.906709 85.064633 34.184143 -0.815366 -19.591619 -1.350536 -0.722013 2.347103 -0.327867 -19.294574 -49.426808 13.248119 171.188337 79.772236 166.554154 -0.665704 -15.750725 1.388149 -1.033090 -2.362659 -0.456332
-161.603322 55.150165 107.502640 -173.473210 -28.232078 -11.529390 -2.005379 13.001813 6.192631 -0.987466 7.610632 2.190767 -1.197442 9.461680 2.704143 -0.990001 7.585466 2.181775 2.149512 20.143450 -2.120136 2.752439 -4.353120 -2.766882 1.914621 -1.627044 -5.128480 -16.712674 -5.416718 5.751664 22.341384 -81.721272 -1.020347 12.096206 6.483491 -18.260786 -9.391087 1.361315 -2.891575 3.849673 -0.421991 -2.168008 -96.345148 -78.460096 98.203648 5.510551 -3.584886 -1.297758 -21.661709 -34.728571 10.669406 37.923145 85.074639 34.201631 -0.799109 -19.589592 -1.355055 -0.723685 2.337428 -0.326109 -19.300083 -49.440925 13.256323 171.085243 79.773066 166.441262 -0.487244 -15.742470 1.334524 -1.023967 -2.372774 -0.455167
-161.599242 55.170342 107.505987 -173.498065 -28.212635 -11.515961 -1.985221 12.999455 6.202644 -0.988084 7.601827 2.184945 -1.189080 9.508987 2.714067 -0.992879 7.558483 2.177646 2.075864 20.096288 -2.161086 2.706225 -4.403680 -2.784627 1.950980 -1.664264 -5.172685 -16.737221 -5.393458 5.754679 22.806722 -81.711996 -1.468629 12.102425 6.494378 -18.237554 -9.382245 1.305412 -2.894252 3.847394 -0.414679 -2.164003 -96.486440 -78.330230 98.421947 5.478729 -3.523702 -1.425062 -21.643025 -34.759482 10.687632 37.971723 85.085293 34.249948 -0.796727 -19.593052 -1.348596 -0.731436 2.335611 -0.331723 -19.279468 -49.467280 13.246114 170.973297 79.776635 166.326233 -0.322440 -15.735576 1.286738 -1.077763 -2.377106 -0.451220
-161.594268 55.190499 107.507879 -173.510112 -28.200594 -11.517625 -1.974282 13.008082 6.219707 -0.987031 7.592190 2.179941 -1.185123 9.519636 2.715905 -0.992111 7.567706 2.175289 2.043427 20.057575 -2.177464 2.614406 -4.460357 -2.809556 1.989232 -1.700047 -5.207717 -16.744663 -5.370184 5.711833 22.981692 -81.723410 -1.644888 12.108274 6.502338 -18.208624 -9.354822 1.220027 -2.883898 3.844790 -0.395282 -2.170509 -96.565412 -78.188401 98.565774 5.446690 -3.457116 -1.548981 -21.641133 -34.771802 10.710306 38.010478 85.089996 34.283672 -0.780848 -19.603355 -1.343239 -0.752042 2.339958 -0.340575 -19.270348 -49.490415 13.247036 170.762149 79.766351 166.129781 -0.244282 -15.705398 1.259463 -1.103319 -2.403032 -0.457663
-161.591480 55.209995 107.508714 -173.528381 -28.195019 -11.508439 -1.944539 13.043926 6.241564 -0.993342 7.573417 2.171821 -1.189458 9.499865 2.709148 -0.986084 7.595722 2.178995 1.955314 20.008097 -2.219443 2.558155 -4.508450 -2.828102 2.022096 -1.737305 -5.240768 -16.758844 -5.355280 5.667607 22.851124 -81.741802 -1.521737 12.153521 6.513481 -18.162166 -9.341441 1.153928 -2.877939 3.889528 -0.460101 -2.164482 -96.414499 -78.057236 98.439577 5.417350 -3.394745 -1.657537 -21.618421 -34.790202 10.720897 38.017445 85.108058 34.292001 -0.775188 -19.598552 -1.338139 -0.758336 2.326437 -0.342884 -19.232661 -49.505186 13.230810 170.644682 79.764869 166.032805 -0.200605 -15.690694 1.244219 -1.078873 -2.416524 -0.464277
-161.589850 55.228191 107.510110 -173.541376 -28.180421 -11.500285 -1.929863 13.043156 6.247365 -0.991836 7.581794 2.174147 -1.189788 9.503388 2.710221 -0.986231 7.598422 2.179869 1.858579 19.964132 -2.262375 2.497027 -4.550420 -2.846267 2.051055 -1.767168 -5.270044 -16.785769 -5.347876 5.662443 22.988107 -81.741668 -1.650143 12.187761 6.521434 -18.114437 -9.321539 1.091636 -2.874760 3.884468 -0.455726 -2.163269 -96.560382 -77.908368 98.657991 5.395775 -3.348493 -1.745777 -21.606757 -34.815456 10.731067 38.054816 85.122627 34.328995 -0.763907 -19.598325 -1.337921 -0.771255 2.318036 -0.342933 -19.226317 -49.525703 13.235191 170.571118 79.764675 165.964310 -0.174854 -15.674614 1.235940 -1.070623 -2.429325 -0.469507
-161.588975 55.246096 107.510480 -173.552902 -28.166631 -11.495488 -1.920127 13.032910 6.251048 -0.981754 7.623179 2.187840 -1.191130 9.506553 2.713008 -0.994175 7.575305 2.172172 1.775722 19.931369 -2.296807 2.411926 -4.586932 -2.865430 2.078775 -1.790960 -5.294069 -16.810061 -5.344347 5.656340 23.313524 -81.737683 -1.963193 12.182559 6.526120 -18.068821 -9.297706 1.034829 -2.870518 3.878765 -0.453724 -2.162726 -96.725625 -77.762796 98.892646 5.384107 -3.319853 -1.818614 -21.600812 -34.835873 10.741385 38.099526 85.134635 34.375403 -0.759922 -19.602709 -1.341547 -0.776156 2.315491 -0.339771 -19.215692 -49.544463 13.239880 170.483515 79.763866 165.883640 -0.169716 -15.661441 1.236125 -1.064777 -2.440548 -0.474400
-161.589433 55.263753 107.509583 -173.565004 -28.154397 -11.489546 -1.904645 13.040296 6.259108 -0.981604 7.623780 2.190093 -1.192442 9.502060 2.713021 -0.991481 7.581530 2.176095 1.679705 19.906995 -2.335929 2.318273 -4.616897 -2.885253 2.099487 -1.809297 -5.317966 -16.826227 -5.355906 5.601248 23.475578 -81.744173 -2.094620 12.138696 6.539779 -18.044764 -9.281979 0.983743 -2.866762 3.892301 -0.483019 -2.156594 -96.818487 -77.639994 99.029599 5.375753 -3.305466 -1.877001 -21.602458 -34.853710 10.755678 38.077083 85.153673 34.344311 -0.747477 -19.608108 -1.346713 -0.780810 2.309344 -0.335101 -19.200885 -49.564652 13.240168 170.360522 79.756398 165.768221 -0.178150 -15.639048 1.241404 -1.063786 -2.461419 -0.479353
-161.593291 55.281284 107.506457 -173.565136 -28.147749 -11.475544 -1.901088 13.054705 6.252466 -0.981656 7.623842 2.192914 -1.197239 9.485757 2.708363 -0.987399 7.602039 2.184300 1.578909 19.884649 -2.378501 2.217850 -4.642478 -2.905170 2.121253 -1.826052 -5.340677 -16.853326 -5.361345 5.605945 23.497277 -81.745638 -2.113250 12.170913 6.554584 -17.990959 -9.266430 0.934581 -2.862316 3.927931 -0.583111 -2.130291 -96.667162 -77.556165 98.891740 5.363859 -3.301090 -1.924009 -21.609431 -34.870647 10.746146 37.991154 85.184542 34.251266 -0.722624 -19.609855 -1.348236 -0.780831 2.293459 -0.337579 -19.159628 -49.570622 13.208419 170.338824 79.766474 165.757361 -0.195781 -15.650869 1.244457 -1.038458 -2.447565 -0.471254
-161.594299 55.298022 107.503987 -173.577628 -28.130430 -11.476378 -1.887333 13.055845 6.268826 -0.977462 7.626376 2.192708 -1.197041 9.485394 2.713040 -0.985809 7.603080 2.186123 1.469330 19.867248 -2.424423 2.112949 -4.666425 -2.925308 2.132235 -1.841399 -5.360628 -16.876024 -5.375179 5.585617 23.614934 -81.752138 -2.213712 12.168662 6.576895 -17.939766 -9.256115 0.891384 -2.861694 3.929160 -0.627728 -2.112016 -96.762916 -77.456108 99.036797 5.352424 -3.302393 -1.960910 -21.630756 -34.880934 10.761375 38.096012 85.183293 34.346065 -0.703363 -19.631125 -1.352811 -0.809905 2.305822 -0.348526 -19.150398 -49.585312 13.218802 170.305867 79.769159 165.729850 -0.197573 -15.653594 1.247368 -1.041377 -2.444560 -0.470078
-161.596941 55.315190 107.498361 -173.579397 -28.126220 -11.476456 -1.865349 13.094520 6.286797 -0.985859 7.606408 2.189414 -1.198113 9.484204 2.712326 -0.985806 7.604253 2.186831 1.361741 19.850892 -2.465492 2.005731 -4.691540 -2.948535 2.147740 -1.854543 -5.374398 -16.879479 -5.404560 5.544167 23.551496 -81.756732 -2.168373 12.148261 6.589742 -17.902517 -9.245487 0.852491 -2.857264 3.923447 -0.660556 -2.095367 -96.915886 -77.347963 99.241701 5.348197 -3.308314 -1.981224 -21.654617 -34.883434 10.767007 38.123376 85.201666 34.361027 -0.679558 -19.638826 -1.357844 -0.825093 2.296238 -0.357612 -19.135804 -49.590036 13.212300 170.240773 79.765069 165.668775 -0.201922 -15.647368 1.248570 -1.047981 -2.453456 -0.465824
-161.599842 55.331348 107.492371 -173.578603 -28.118545 -11.476417 -1.856993 13.109428 6.296757 -0.987219 7.610097 2.192453 -1.196319 9.484951 2.711363 -0.985384 7.605987 2.189085 1.248879 19.833256 -2.508323 1.899115 -4.718738 -2.976002 2.162979 -1.865632 -5.390025 -16.898506 -5.424355 5.545187 24.323207 -81.763347 -2.940213 12.115958 6.619521 -17.819253 -9.239739 0.814219 -2.854167 3.912675 -0.667951 -2.092868 -97.176553 -77.223195 99.554775 5.348206 -3.316742 -1.987781 -21.699757 -34.884612 10.780393 38.172422 85.217280 34.382085 -0.648724 -19.653083 -1.362189 -0.843018 2.294959 -0.365301 -19.132792 -49.598946 13.215120 170.192738 79.758187 165.614125 -0.205825 -15.636292 1.261790 -1.050083 -2.465445 -0.469413
